<svg width="16" height="16" viewBox="0 0 16 16" fill="none" xmlns="http://www.w3.org/2000/svg">
<path d="M14.3566 8.59757L8.42985 1.76721C8.37628 1.70541 8.31004 1.65584 8.23564 1.62187C8.16123 1.58789 8.08039 1.57031 7.9986 1.57031C7.91681 1.57031 7.83597 1.58789 7.76156 1.62187C7.68716 1.65584 7.62093 1.70541 7.56735 1.76721L1.64235 8.59757C1.62445 8.61816 1.61284 8.64346 1.60891 8.67046C1.60498 8.69746 1.60889 8.72502 1.62018 8.74986C1.63147 8.77469 1.64966 8.79576 1.67259 8.81055C1.69551 8.82535 1.72221 8.83324 1.74949 8.83328H3.19592C3.27807 8.83328 3.35664 8.79757 3.41199 8.73507L7.32092 4.22971V14.2851C7.32092 14.3636 7.38521 14.4279 7.46378 14.4279H8.53521C8.61378 14.4279 8.67807 14.3636 8.67807 14.2851V4.22971L12.587 8.73507C12.6406 8.79757 12.7191 8.83328 12.8031 8.83328H14.2495C14.3709 8.83328 14.437 8.69043 14.3566 8.59757Z" fill="#919191"/>
</svg>
