<svg width="14" height="21" viewBox="0 0 14 21" fill="none" xmlns="http://www.w3.org/2000/svg">
<path d="M12.5 19C12.7761 19 13 19.2239 13 19.5C13 19.7761 12.7761 20 12.5 20H0.5C0.223858 20 0 19.7761 0 19.5C0 19.2239 0.223858 19 0.5 19H12.5Z" fill="white"/>
<path d="M14.002 4.24869C14.002 4.49011 13.8889 4.71853 13.6962 4.86605L12.279 5.94969L12.1387 20.4489C12.1357 20.7562 11.8819 21.0029 11.572 21C11.2625 20.9968 11.0136 20.7461 11.0163 20.4391L11.1588 5.77687C11.1613 5.53824 11.2741 5.31403 11.4646 5.1682L12.8796 4.08348V1.11298H11.8526V2.67377C11.8525 3.10397 11.5006 3.45308 11.0668 3.45308H8.93715C8.50331 3.45308 8.15138 3.10397 8.15129 2.67377V1.11298H6.56313C6.2532 1.11298 6.00195 0.863835 6.00195 0.556492C6.00195 0.24915 6.2532 0 6.56313 0H8.48777C8.92167 0 9.27363 0.349028 9.27363 0.779307V2.34009H10.7303V0.779307C10.7303 0.349028 11.0822 0 11.5161 0H13.2161C13.65 4.49978e-05 14.002 0.349056 14.002 0.779307V4.24869Z" fill="white"/>
<path d="M0 4.21382C0 4.464 0.118647 4.69898 0.31821 4.84416L1.79614 5.9192V20.4474C1.79615 20.7525 2.0386 20.9999 2.33742 21C2.63635 21 2.87868 20.7526 2.87869 20.4474V6.18796H11.4587C11.7576 6.18796 11.9999 5.94049 12 5.63533C12 5.33012 11.7577 5.0827 11.4587 5.0827H2.51079L1.08255 4.0422V1.10526H2.07312V2.65522C2.07321 3.08244 2.41266 3.42912 2.83112 3.42912H4.88521C5.30363 3.42908 5.64311 3.08241 5.6432 2.65522V1.10526H6.48366C6.78257 1.10524 7.02493 0.857826 7.02493 0.552632C7.02493 0.247437 6.78257 2.48142e-05 6.48366 0H5.31865C4.90014 0 4.56066 0.346606 4.56066 0.7739V2.32386H3.15567V0.7739C3.15567 0.346641 2.81614 5.70734e-05 2.39767 0H0.757995C0.339482 0 0 0.346607 0 0.7739V4.21382Z" fill="white"/>
<path d="M8 10C8 9.44772 7.55228 9 7 9C6.44772 9 6 9.44772 6 10V11H8V10ZM9 11.4287L8.98828 11.5439C8.94255 11.767 8.76696 11.9426 8.54395 11.9883L8.42871 12H5.57129C5.29529 11.9999 5.06508 11.8042 5.01172 11.5439L5 11.4287V10C5 8.89543 5.89543 8 7 8C8.10457 8 9 8.89543 9 10V11.4287Z" fill="white"/>
<path d="M8.01562 17.0563C8.01562 16.4798 7.56135 16.012 7.00048 16.0119C6.43947 16.0119 5.98438 16.4797 5.98438 17.0563V18.9881H8.01562V17.0563ZM9 19.4941C9 19.7735 8.77964 20 8.50781 20H5.49219C5.22036 20 5 19.7735 5 19.4941V17.0563C5 15.9208 5.89582 15 7.00048 15C8.10501 15.0002 9 15.9209 9 17.0563V19.4941Z" fill="white"/>
</svg>
