<svg width="24" height="24" viewBox="0 0 24 24" fill="none" xmlns="http://www.w3.org/2000/svg">
<path d="M2.14341 1.28906H21.8577C22.3318 1.28906 22.7148 1.6721 22.7148 2.14621V21.8605C22.7148 22.3346 22.3318 22.7176 21.8577 22.7176H2.14341C1.66931 22.7176 1.28627 22.3346 1.28627 21.8605V2.14621C1.28627 1.6721 1.66931 1.28906 2.14341 1.28906ZM20.7863 4.21764C20.7863 3.66535 20.3386 3.21763 19.7863 3.21763H18.1434C17.5911 3.21763 17.1434 3.66535 17.1434 4.21763V19.7891C17.1434 20.3413 17.5911 20.7891 18.1434 20.7891H19.7863C20.3386 20.7891 20.7863 20.3413 20.7863 19.7891V4.21764ZM3.21484 19.7891C3.21484 20.3414 3.66256 20.7891 4.21484 20.7891H14.4291C14.9814 20.7891 15.4291 20.3413 15.4291 19.7891V9.57478C15.4291 9.02249 14.9814 8.57478 14.4291 8.57478H4.21484C3.66256 8.57478 3.21484 9.02249 3.21484 9.57478V19.7891ZM14.4291 6.86049C14.9814 6.86049 15.4291 6.41278 15.4291 5.86049V4.21763C15.4291 3.66535 14.9814 3.21763 14.4291 3.21763H4.21484C3.66256 3.21763 3.21484 3.66535 3.21484 4.21763V5.86049C3.21484 6.41278 3.66256 6.86049 4.21484 6.86049H14.4291Z" fill="#F9F9F9"/>
</svg>
