<svg width="18" height="24" viewBox="0 0 18 24" fill="none" xmlns="http://www.w3.org/2000/svg">
<rect x="7.82324" y="5" width="2" height="8" rx="1" fill="#F9F9F9"/>
<rect x="12.8232" y="8" width="2" height="8" rx="1" transform="rotate(90 12.8232 8)" fill="#F9F9F9"/>
<path d="M8.82324 0.5C10.4314 0.5 12.0064 0.977432 13.3564 1.875C14.7064 2.77261 15.7748 4.05223 16.4297 5.56055C17.0846 7.06905 17.2971 8.74042 17.042 10.3711C16.7869 12.0018 16.0754 13.5213 14.9941 14.7441L14.9814 14.7578L14.9707 14.7725L14.9443 14.8047C14.7685 15.0045 13.7489 16.1757 12.6113 17.6885C11.388 19.3152 9.98435 21.3944 9.38086 23.0957L9.37891 23.1006C9.33761 23.2209 9.26084 23.3227 9.16211 23.3936C9.06351 23.4643 8.94703 23.5011 8.8291 23.5H8.81934C8.70111 23.5008 8.58419 23.4644 8.48535 23.3936C8.38622 23.3224 8.30927 23.2192 8.26758 23.0986L8.2666 23.0957L8.14453 22.7725C7.48863 21.1363 6.18305 19.2137 5.03613 17.6885C3.87971 16.1507 2.84455 14.9662 2.69434 14.7959L2.67676 14.7725L2.66602 14.7578L2.65332 14.7441L2.45508 14.5107C1.48501 13.3303 0.843681 11.8999 0.604492 10.3711C0.349435 8.74045 0.562868 7.06902 1.21777 5.56055C1.87269 4.05219 2.94099 2.77259 4.29102 1.875C5.64094 0.977485 7.21517 0.500057 8.82324 0.5Z" stroke="#F9F9F9"/>
<path d="M8.82129 1.31396C10.812 1.31399 12.7242 2.12413 14.1357 3.5708C15.5475 5.01779 16.3426 6.98318 16.3428 9.03467V9.03564C16.345 10.9633 15.641 12.82 14.373 14.2378L14.3711 14.2388V14.2397L14.3672 14.2437C14.3649 14.2462 14.3616 14.2497 14.3574 14.2544C14.3487 14.2643 14.336 14.2793 14.3193 14.2983C14.286 14.3364 14.237 14.3921 14.1748 14.4644C14.0505 14.6088 13.872 14.8185 13.6543 15.0806C13.2189 15.6045 12.6253 16.3397 11.9932 17.1831C10.8397 18.722 9.52455 20.6675 8.82715 22.3638C8.12958 20.6674 6.81263 18.7221 5.6582 17.1831C5.02555 16.3397 4.43185 15.6045 3.99609 15.0806C3.77815 14.8185 3.59907 14.6088 3.47461 14.4644C3.41263 14.3924 3.36434 14.3364 3.33105 14.2983C3.31439 14.2793 3.30073 14.2643 3.29199 14.2544C3.28784 14.2497 3.28447 14.2462 3.28223 14.2437C3.28111 14.2424 3.27992 14.2414 3.2793 14.2407V14.2397L3.27637 14.2368C2.00628 12.8199 1.29986 10.9632 1.2998 9.03467L1.30859 8.65186C1.40108 6.73998 2.18307 4.92754 3.50684 3.5708C4.91837 2.12411 6.83052 1.31396 8.82129 1.31396Z" stroke="#F9F9F9"/>
</svg>
