<svg width="64" height="40" viewBox="0 0 64 40" fill="none" xmlns="http://www.w3.org/2000/svg">
<path d="M32 39.2027C49.6731 39.2027 64 36.092 64 32.2547C64 28.4174 49.6731 25.3066 32 25.3066C14.3269 25.3066 0 28.4174 0 32.2547C0 36.092 14.3269 39.2027 32 39.2027Z" fill="#919191"/>
<path d="M55 13.1653L44.854 1.74866C44.367 0.970482 43.656 0.5 42.907 0.5H21.093C20.344 0.5 19.633 0.970482 19.146 1.74767L9 13.1663V22.3367H55V13.1653Z" stroke="#4E4E4E"/>
<path d="M41.613 16.3127C41.613 14.7197 42.607 13.4045 43.84 13.4035H55V31.4059C55 33.5131 53.68 35.2402 52.05 35.2402H11.95C10.32 35.2402 9 33.5121 9 31.4059V13.4035H20.16C21.393 13.4035 22.387 14.7167 22.387 16.3098V16.3316C22.387 17.9247 23.392 19.2111 24.624 19.2111H39.376C40.608 19.2111 41.613 17.9128 41.613 16.3197V16.3127V16.3127Z" fill="#3A3A3A" stroke="#4E4E4E"/>
</svg>
