<svg width="24" height="24" viewBox="0 0 24 24" fill="none" xmlns="http://www.w3.org/2000/svg">
<path d="M22.5004 11.9976H21.0004C20.8826 11.9976 20.7861 12.094 20.7861 12.2119V20.7833H3.2147V3.21185H11.7861C11.904 3.21185 12.0004 3.11542 12.0004 2.99757V1.49757C12.0004 1.37971 11.904 1.28328 11.7861 1.28328H2.14328C1.66917 1.28328 1.28613 1.66632 1.28613 2.14042V21.8547C1.28613 22.3288 1.66917 22.7119 2.14328 22.7119H21.8576C22.3317 22.7119 22.7147 22.3288 22.7147 21.8547V12.2119C22.7147 12.094 22.6183 11.9976 22.5004 11.9976Z" fill="#F9F9F9"/>
<path d="M7.81899 12.611L7.7681 15.7958C7.76542 16.0342 7.95828 16.2297 8.19667 16.2297H8.20738L11.3681 16.152C11.4217 16.1494 11.4752 16.1279 11.5127 16.0904L22.6529 4.97435C22.736 4.89132 22.736 4.75471 22.6529 4.67167L19.3235 1.34489C19.2806 1.30203 19.227 1.28328 19.1708 1.28328C19.1145 1.28328 19.061 1.30471 19.0181 1.34489L7.8806 12.461C7.84191 12.5014 7.81991 12.555 7.81899 12.611ZM9.51988 13.2431L19.1708 3.61364L20.3815 4.82167L10.7252 14.4565L9.50113 14.486L9.51988 13.2431Z" fill="#F9F9F9"/>
</svg>
