<svg width="1124" height="931" viewBox="0 0 1124 931" fill="none" xmlns="http://www.w3.org/2000/svg">
<g opacity="0.04">
<path d="M-643.733 845.702C-647.066 679.605 -643.073 512.665 -644.753 346.494C-645.117 310.416 -647.325 255.911 -638.547 221.646C-608.492 104.331 -413.525 33.4782 -346.313 156.006C-335.149 143.925 -328.699 138.638 -313.921 131.139C-206.898 142.082 -98.8909 174.48 9.08478 182.742C26.8121 184.1 68.3937 185.666 82.3593 190.182L85.2934 194.308C64.2008 236.723 -131.222 199.139 -175.974 194.828C-199.88 225.992 -206.551 241.928 -216.745 280.137C-229.839 239.726 -232.972 232.237 -234.776 189.362C-301.527 185.218 -342.736 167.853 -353.438 251.772C-374.708 418.695 -378.006 591.138 -352.807 757.839C-346.195 804.337 -317.515 850.471 -317.49 897.303C-317.451 978.845 -420.165 1033.34 -492.816 1013.96C-512.416 1008.74 -531.895 990.152 -529.271 968.414C-522.279 910.517 -468.289 899.552 -419.679 900.525C-539.751 778.258 -693.104 1072.92 -349.57 1062.32C-327.62 1061.44 -305.683 1060.33 -283.758 1058.98C-265.774 1038.78 -250.217 1001.63 -233.546 977.741C-232.615 1004.44 -231.053 1023.88 -224.005 1049.83L-70.1417 1022.72C-48.0317 1018.78 -25.8478 1014.77 -3.80194 1010.57C32.8921 1003.58 31.6924 978.877 37.5211 946.462C43.7783 962.894 51.6862 987.329 69.1057 994.929C81.0044 1000.12 201.482 986.647 226.475 986.373C325.224 985.294 419.161 994.36 516.186 1012.72C542.614 1017.72 570.425 1021.87 596.159 1029.71C616.332 1000.73 632.712 964.187 645.367 931.075C647.434 957.925 650.58 1017 656.872 1040.28C688.176 1047.43 757.11 1060.01 786.82 1052.15C798.694 1042.79 793.498 1022.31 800.536 1022.45C806.7 1035.86 812.585 1045.01 827.428 1049.4C859.978 1059.03 902.555 1050.81 934.768 1044.36C975.475 1036.21 1017.09 1008.93 994.114 963.093C975.729 926.971 936.909 912.626 900.843 900.707C899.237 917.641 897.975 936.199 882.347 945.765C830.596 977.438 764.406 946.563 745.354 893.433C756.548 892.477 767.91 892.164 778.333 888.077C775.497 882.852 752.281 878.703 745.127 877.001C759.206 812.45 786.337 768.111 814.591 710.076C820.976 696.958 830.604 669.751 838.359 659.902C849.666 663.341 852.408 677.683 854.965 688.304C879.452 682.504 889.467 682.009 914.976 682.61C879.674 694.13 853.356 702.747 835.72 739.759C817.535 777.921 800.783 824.472 792.451 865.854C881.394 849.41 973.073 845.397 1041.95 915.052C1045.25 848.247 1061.75 788.408 1001.8 743.831C993.124 737.382 981.92 729.457 973.938 722.475C1002.66 731.964 1021.32 741.34 1047.81 756.001C1047.38 694.327 1051.59 615.359 1055.62 553.656C980.065 514.215 928.9 495.302 877.866 579.655C860.85 496.273 796.565 361.615 717.166 322.201C730.28 349.413 752.037 375.564 769.215 400.952C820.853 477.272 856.837 552.239 853.911 645.882C795.407 606 762.96 600.167 696.325 628.174C705.203 598.107 721.1 496.689 701.447 472.564C676.474 485.796 709.714 621.175 626.719 667.103C623.543 668.894 620.306 670.576 617.015 672.145C608.723 665.593 592.633 652.154 584.228 647.153C508.202 641.918 432.606 670.63 360.337 693.635C426.667 705.058 471.471 717.415 539.597 722.532C451.016 737.022 326.156 716.109 236.755 704.893C180.533 697.99 124.172 692.265 67.7089 687.72C115.361 668.295 132.837 633.335 160.588 591.33L180.409 587.221L175.662 580.249L180.693 576.702L179.348 572.354C189.722 554.348 224.723 543.673 249.604 501.008C251.452 518.425 252.226 534.581 253.041 552.081C285.286 508.014 295.628 491.284 288.664 435.732C313.353 435.023 338.052 436.732 362.409 440.832C353.291 426.494 340.875 399.748 331.24 382.732C369.04 383.04 408.117 381.486 446.015 380.424C432.239 370.996 380.005 340.259 382.683 324.367L389.689 320.851C409.974 316.498 442.975 312.424 460.949 307.258C475.494 305.863 490.836 304.154 505.339 303.131C534.448 326.685 547.862 340.143 568.333 371.789C547.864 367.052 530.499 363.433 509.367 362.628C532.221 408.631 545.851 418.234 555.388 470.997L506.585 457.064C525.909 489.535 531.543 513.077 536.788 549.933L498.904 531.469C502.839 548.926 504.053 557.033 505.383 574.874C586.731 535.6 714.038 444.532 665.667 331.499C645.525 284.428 595.875 263.875 549.978 247.722C586.696 248.836 625.07 249.067 660.959 254.199C807.365 275.134 948.086 347.925 1040 465.312C1045.47 472.301 1052.14 480.477 1058.05 487.151C1059.9 389.413 1073.76 307.859 1086.31 213.312C1070.02 180.503 1055.34 175.522 1023.51 161.071C1012.66 186.016 977.286 298.712 957.878 306.777C955.875 307.608 952.781 306.314 950.663 305.834C924.855 282.559 931.171 185.361 896.653 182.885C888.617 188.093 881.174 195.365 872.651 195.028C867.022 190.608 865.494 186.364 862.346 180.067C810.955 177.34 715.043 177.899 663.563 190.988C659.111 192.118 638.768 209.55 632.895 213.689C629.892 210.824 621.575 202.928 618 201.699C605.939 197.545 562.904 197.038 559.955 182.791C572.135 170.841 611.065 167.173 629.406 161.44C636.031 168.168 643.027 175.566 649.782 182.062C657.549 168.976 662.348 156.991 678.016 154.38C743.287 143.508 881.11 135.076 943.775 151.732C948.726 179.264 953.116 204.68 956.302 232.594C970.876 193.899 984.728 154.937 997.846 115.725C1059.95 130.282 1130.27 156.42 1122.58 233.803C1118.4 275.784 1114.52 318.464 1111.22 360.521C1105.68 436.538 1101.19 512.631 1097.76 588.775C1093.94 667.342 1091.87 746.184 1087.11 824.698C1083.32 887.382 1088.98 955.414 1075.65 1016.46C1056.83 1095.63 963.106 1111.13 895.066 1111.92C809.112 1113.2 724.554 1098.12 639.618 1087.32C622.297 1085.12 603.495 1082.35 586.142 1081.1C442.869 1070.79 301.338 1044.16 157.171 1050.58C71.6012 1054.39 -10.7293 1065.39 -95.1537 1078.86C-228.718 1097.09 -370.517 1130.55 -504.244 1097.45C-574.971 1079.95 -647.31 1027.32 -649.904 948.194C-651.833 889.333 -624.643 835.146 -572.348 806.35C-539.154 787.829 -499.861 783.58 -463.475 794.574C-426.116 805.786 -400.001 827.647 -376.989 858.318C-390.245 796.314 -412.244 769.814 -478.52 755.806C-488.022 753.798 -498.637 753.284 -508.361 752.367C-463.722 743.528 -438.882 742.636 -396.746 764.453C-432.906 585.876 -428.755 378.066 -386.609 201.068C-370.892 135.059 -443.415 125.512 -491.599 135.229C-572.828 154.215 -610.86 211.821 -603.068 294.246C-601.462 311.239 -601.671 344.577 -601.969 362.716C-567.315 352.537 -556.325 351.431 -520.03 351.064C-554.697 367.296 -580.165 379.971 -600.984 414.364C-603.908 483.505 -598.69 565.099 -602.853 630.818C-572.412 613.1 -563.886 608.838 -530.017 600.295C-627.062 673.138 -599.156 687.33 -602.225 799.445C-617.708 812.886 -631.075 829.532 -643.733 845.702Z" fill="#838383"/>
<path d="M180.69 576.699C188.782 573.787 195.434 570.331 203.6 572.61L204.177 575.968C197.831 583.025 189.583 584.462 180.406 587.218L175.659 580.247L180.69 576.699Z" fill="#181818"/>
<path d="M391.211 460.852C409.63 475.339 412.875 514.054 408.046 535.23C393.649 598.382 325.307 636.48 275.627 669.346L270.89 672.184L269.417 669.531C283.412 635.369 334.868 599.476 358.904 571.961C392.349 533.675 394.297 508.274 391.211 460.852Z" fill="#181818"/>
<path d="M233.655 169.329C334.558 137.119 430.418 78.7485 501.811 0C483.115 65.1943 452.514 120.485 397.809 162.109C386.881 170.423 347.472 194.548 350.776 207.881C368.163 215.486 496.243 216.259 526.798 218.299C495.714 231.543 461.358 243.602 429.453 255.36C442.265 262.758 473.825 278.175 477.949 291.394L478.223 293.677C467.625 296.062 441.822 301.189 433.14 305.446C442.714 305.845 456.125 303.536 460.954 307.261C442.98 312.427 409.979 316.502 389.694 320.855C383.69 317.039 382.163 312.117 379.17 305.736C365.288 307.224 351.101 310.272 337.354 312.922C358.59 335.042 370.989 348.328 396.7 364.833C362.8 366.602 327.412 364.846 293.487 363.414C307.635 378.565 321.881 402.508 333.999 420.398C259.02 406.509 149.031 441.902 147.479 530.571C102.828 505.271 88.9414 495.434 70.6154 449.711C75.0201 452.803 79.4914 455.798 84.0267 458.696C90.8432 462.994 97.4258 466.276 105.592 464.404C110.47 458.067 108.733 450.354 110.647 440.128C120.637 435.144 126.857 447.124 134.465 441.961C159.95 424.662 168.875 390.917 190.477 370.573C211.097 351.158 231.229 343.485 256.302 333.554C184.893 338.252 161.164 336.042 131.644 407.629C127.187 393.757 125.33 381.211 110.524 375.983C102.983 377.833 95.8097 388.03 90.1067 394.43C75.2838 395.617 69.1201 386.998 56.6793 387.599C50.5575 399.093 56.9429 417.07 60.2859 429.981C32.9163 407.356 3.60055 387.123 -7.15021 351.097C-11.9984 334.853 -8.63574 313.316 10.3013 308.555C13.1515 309.316 21.8551 311.671 24.2053 310.801C40.0802 304.019 82.1471 271.853 89.715 257.028C113.012 211.384 132.568 174.618 162.287 132.308C160.849 148.111 161.381 164.925 161.499 180.856C240.346 124.094 283.293 77.5587 346.881 5.75724C339.894 92.4555 301.991 122.749 233.655 169.329Z" fill="#838383"/>
<path d="M379.159 305.733C409.364 302.922 451.342 292.008 477.938 291.39L478.212 293.674C467.614 296.058 441.811 301.185 433.13 305.442C442.703 305.841 456.114 303.533 460.943 307.258C442.969 312.424 409.968 316.498 389.683 320.851C383.68 317.035 382.152 312.113 379.159 305.733Z" fill="#838383"/>
<path d="M210.467 239.583L216.904 241.032C223.866 251.711 217.374 265.805 209.328 274.587C191.308 294.258 176.448 295.076 151.51 295.704C146.915 294.472 146.758 294.761 143.454 291.09C149.872 277.238 195.819 247.375 210.467 239.583Z" fill="#181818"/>
<path d="M36.2003 469.344C40.3982 469.06 38.3978 468.592 42.1596 471.497C35.1607 483.888 10.0034 512.704 -0.0970459 527.761C-30.7283 573.427 -56.9524 623.488 -76.4979 674.82L-74.4236 678.779L-68.0332 679.089C-63.3452 676.803 -58.3319 670.905 -56.1443 666.306C-32.5931 616.782 -7.18948 575.314 23.6364 530.108C23.1437 602.647 54.312 626.338 124.409 613.516C106.339 638.84 86.2982 662.135 67.9993 687.303C39.0629 687.524 4.72653 685.96 -25.0474 685.743C-145.703 684.056 -225.602 696.563 -336.928 744.892C-232.62 606.82 -134.311 522.898 36.2003 469.344Z" fill="#838383"/>
<path d="M526.383 769.32L550.875 792.758C536.798 807.384 521.214 822.339 506.739 836.726C520.958 851.628 535.594 867.668 551.417 880.707L528.24 904.121C522.702 902.364 490.708 867.676 484.306 861.004C472.323 874.495 454.221 891.468 441.086 904.515C433.617 898.058 425.292 888.623 418.412 881.264C430.683 867.316 447.255 851.411 460.563 837.98C446.077 822.973 431.705 807.857 417.446 792.635C426.672 783.258 431.375 779.743 442.111 771.951C446.319 773.222 478.881 808.426 483.877 813.685C499.414 798.424 512.02 785.633 526.383 769.32Z" fill="#838383"/>
<path d="M720.383 800.486C724.537 807.017 722.356 816.997 721.704 824.708C718.531 862.21 720.987 895.541 726.601 932.646L691.107 945.062L686.98 943.579C677.075 913.421 708.435 828.856 720.383 800.486Z" fill="#838383"/>
<path d="M105.022 755.324C121.853 751.498 148.331 760.906 155.251 778.597C141.081 777.183 110.137 769.309 105.022 755.324Z" fill="#838383"/>
<path d="M290.841 840.525C305.324 844.726 333.681 850.448 338.739 865.685C323.108 867.523 293.928 858.923 290.841 840.525Z" fill="#838383"/>
<path d="M167.681 781.887C184.235 780.581 209.065 792.812 216.269 808.049C202.633 810.434 174.714 794.322 167.681 781.887Z" fill="#838383"/>
<path d="M230.807 811.448C243.274 811.943 272.494 825.709 276.495 838.825C263.093 840.525 234.169 827.454 230.807 811.448Z" fill="#838383"/>
<path d="M40.2949 738.159C55.2041 736.449 85.2441 737.947 89.6784 754.948C74.8801 754.731 46.1482 752.543 40.2949 738.159Z" fill="#838383"/>
<path d="M6.87172 733.569C12.2249 733.648 16.4671 734.081 19.9973 737.882L18.8863 740.802C8.47796 746.82 -1.44753 746.475 -13.3857 747.231C-21.2246 747.51 -21.0151 748.754 -27.0557 745.059C-20.6284 735.835 -3.34199 734.347 6.87172 733.569Z" fill="#838383"/>
<path d="M355.642 866.144C372.135 867.067 388.197 863.451 392.592 880.851C378.242 881.617 359.394 882.292 355.642 866.144Z" fill="#838383"/>
</g>
</svg>
